<?xml version="1.0" encoding="utf-8"?>
<!-- Generator: Adobe Illustrator 16.0.0, SVG Export Plug-In . SVG Version: 6.00 Build 0)  -->
<!DOCTYPE svg PUBLIC "-//W3C//DTD SVG 1.1//EN" "http://www.w3.org/Graphics/SVG/1.1/DTD/svg11.dtd">
<svg version="1.1" id="Layer_1" xmlns="http://www.w3.org/2000/svg" xmlns:xlink="http://www.w3.org/1999/xlink" x="0px" y="0px"
	 width="304px" height="236px" viewBox="0 0 960 560" enable-background="new 0 0 960 560" xml:space="preserve">
<g>
	<defs>
		<rect id="SVGID_1_" width="960" height="560"/>
	</defs>
	<clipPath id="SVGID_2_">
		<use xlink:href="#SVGID_1_"  overflow="visible"/>
	</clipPath>
	<rect clip-path="url(#SVGID_2_)" fill="#9FB57C" width="960" height="560"/>
	<g clip-path="url(#SVGID_2_)">
		<defs>
			<rect id="SVGID_3_" width="960" height="560"/>
		</defs>
		<clipPath id="SVGID_4_">
			<use xlink:href="#SVGID_3_"  overflow="visible"/>
		</clipPath>
		<path clip-path="url(#SVGID_4_)" fill="#3F3C30" d="M644.258,205.065c0,28.462-23.073,51.535-51.535,51.535
			s-51.534-23.073-51.534-51.535s23.072-51.535,51.534-51.535S644.258,176.604,644.258,205.065"/>
		<path clip-path="url(#SVGID_4_)" fill="#F4E9BA" d="M497.109,543.879h-62.739c-63.232,0-114.968-51.736-114.968-114.968V293.707
			c0-63.233,51.736-114.968,114.968-114.968h62.739c63.233,0,114.968,51.735,114.968,114.968v135.204
			C612.077,492.143,560.343,543.879,497.109,543.879"/>
		<path clip-path="url(#SVGID_4_)" fill="#3F3C30" d="M427.6,498.684c5.99-6.62,18.539-11.368,33.056-11.368
			c16.766,0,30.903,6.364,35.345,14.679C515.661,494.742,531.831,480,541.4,463H389.789C398.103,479,411.381,490.866,427.6,498.684"
			/>
		<path clip-path="url(#SVGID_4_)" fill="#E24242" d="M460.656,487.126c-14.517,0-27.066,4.56-33.056,11.179
			c11.438,5.514,24.332,8.62,37.98,8.62c10.719,0,20.971-1.918,30.421-5.402C491.559,493.207,477.422,487.126,460.656,487.126"/>
		<path clip-path="url(#SVGID_4_)" fill="#F2E7E7" d="M541.208,445h-0.122H390.074h-0.099c-3.453,0-5.947,3.92-4.758,7.161
			c1.29,3.515,2.824,6.839,4.572,10.839H541.4c1.746-4,3.272-7.325,4.561-10.839C547.148,448.921,544.659,445,541.208,445"/>
		<path clip-path="url(#SVGID_4_)" fill="#E5D693" d="M460.105,387.206c0,5.246-4.252,9.498-9.498,9.498
			c-5.245,0-9.498-4.252-9.498-9.498s4.253-9.498,9.498-9.498C455.853,377.708,460.105,381.96,460.105,387.206"/>
		<path clip-path="url(#SVGID_4_)" fill="#E5D693" d="M491.033,387.206c0,5.246-4.253,9.498-9.498,9.498
			c-5.246,0-9.499-4.252-9.499-9.498s4.253-9.498,9.499-9.498C486.78,377.708,491.033,381.96,491.033,387.206"/>
		<path clip-path="url(#SVGID_4_)" fill="#3F3C30" d="M345.054,106.704c-14.684,57.826,8.137,113.914,52.296,128.507l54.974-216.495
			C406.553,10.472,359.737,48.878,345.054,106.704"/>
		<path clip-path="url(#SVGID_4_)" fill="#3F3C30" d="M479.677,157.569c0,28.462-23.073,51.535-51.535,51.535
			c-28.462,0-51.534-23.073-51.534-51.535s23.072-51.535,51.534-51.535C456.604,106.034,479.677,129.107,479.677,157.569"/>
		<path clip-path="url(#SVGID_4_)" fill="#3F3C30" d="M549.265,165.301c0,28.462-23.072,51.535-51.534,51.535
			c-28.462,0-51.534-23.073-51.534-51.535s23.072-51.535,51.534-51.535C526.192,113.766,549.265,136.839,549.265,165.301"/>
		<path clip-path="url(#SVGID_4_)" fill="#F4E9BA" d="M358.175,354.284c0,21.695-17.587,39.282-39.282,39.282
			c-21.695,0-39.282-17.587-39.282-39.282s17.587-39.282,39.282-39.282C340.588,315.002,358.175,332.589,358.175,354.284"/>
		<path clip-path="url(#SVGID_4_)" fill="#E5D693" d="M339.652,354.362c0,11.422-9.259,20.681-20.681,20.681
			c-11.422,0-20.681-9.259-20.681-20.681s9.259-20.681,20.681-20.681C330.393,333.682,339.652,342.94,339.652,354.362"/>
		<path clip-path="url(#SVGID_4_)" fill="#F4E9BA" d="M650.886,354.284c0,21.695-17.587,39.282-39.282,39.282
			s-39.282-17.587-39.282-39.282s17.587-39.282,39.282-39.282S650.886,332.589,650.886,354.284"/>
		<path clip-path="url(#SVGID_4_)" fill="#E5D693" d="M632.362,354.362c0,11.422-9.259,20.681-20.681,20.681
			S591,365.784,591,354.362s9.26-20.681,20.682-20.681S632.362,342.94,632.362,354.362"/>
		<path clip-path="url(#SVGID_4_)" fill="#3F3C30" d="M617.748,157.569c0,28.462-23.072,51.535-51.535,51.535
			c-28.462,0-51.534-23.073-51.534-51.535s23.072-51.535,51.534-51.535C594.676,106.034,617.748,129.107,617.748,157.569"/>
		<path clip-path="url(#SVGID_4_)" fill="#3F3C30" d="M594.105,235.022h-196.21c-6.6,0-12-5.4-12-12v-53.39c0-6.6,5.4-12,12-12
			h196.21c6.601,0,12,5.4,12,12v53.39C606.105,229.622,600.706,235.022,594.105,235.022"/>
		<path clip-path="url(#SVGID_4_)" fill="#3F3C30" d="M363.724,227.366c0,2.115-1.715,3.829-3.829,3.829
			c-2.115,0-3.83-1.714-3.83-3.829c0-2.115,1.715-3.829,3.83-3.829C362.009,223.537,363.724,225.25,363.724,227.366"/>
		<path clip-path="url(#SVGID_4_)" fill="#3F3C30" d="M376.979,239.516c0,2.115-1.715,3.829-3.829,3.829
			c-2.115,0-3.83-1.714-3.83-3.829c0-2.115,1.715-3.829,3.83-3.829C375.264,235.687,376.979,237.401,376.979,239.516"/>
		<path clip-path="url(#SVGID_4_)" fill="#3F3C30" d="M360.411,243.934c0,2.115-1.715,3.829-3.829,3.829
			c-2.115,0-3.83-1.714-3.83-3.829c0-2.115,1.715-3.829,3.83-3.829C358.696,240.105,360.411,241.819,360.411,243.934"/>
		<path clip-path="url(#SVGID_4_)" fill="#3F3C30" d="M360.411,256.084c0,2.115-1.715,3.829-3.829,3.829
			c-2.115,0-3.83-1.714-3.83-3.829c0-2.115,1.715-3.829,3.83-3.829C358.696,252.255,360.411,253.969,360.411,256.084"/>
		<path clip-path="url(#SVGID_4_)" fill="#3F3C30" d="M344.947,251.666c0,2.115-1.715,3.829-3.829,3.829
			c-2.115,0-3.83-1.714-3.83-3.829s1.715-3.829,3.83-3.829C343.231,247.837,344.947,249.551,344.947,251.666"/>
		<path clip-path="url(#SVGID_4_)" fill="#13BA5E" d="M589.863,366.178H341.586c-15.714,0-28.572-12.858-28.572-28.572v-61.044
			c0-15.715,12.858-28.573,28.572-28.573h248.277c15.715,0,28.572,12.858,28.572,28.573v61.044
			C618.436,353.319,605.578,366.178,589.863,366.178"/>
		<path clip-path="url(#SVGID_4_)" fill="#0B843F" d="M589.863,369.178H341.587c-17.409,0-31.572-14.163-31.572-31.572v-61.044
			c0-17.409,14.163-31.572,31.572-31.572h248.276c17.409,0,31.572,14.163,31.572,31.572v61.044
			C621.436,355.015,607.272,369.178,589.863,369.178 M341.587,250.989c-14.101,0-25.572,11.472-25.572,25.572v61.044
			c0,14.101,11.471,25.572,25.572,25.572h248.276c14.101,0,25.572-11.472,25.572-25.572v-61.044c0-14.1-11.472-25.572-25.572-25.572
			H341.587z"/>
		<path clip-path="url(#SVGID_4_)" fill="#13BA5E" d="M454.372,248L337.021,365.289c2.17,0.5,4.425,0.711,6.741,0.711h22.73
			l118.125-118H454.372z"/>
		<path clip-path="url(#SVGID_4_)" fill="#13BA5E" d="M343.762,248C327.133,248,313,261.49,313,278.119v57.656
			c0,0.396,0.279,0.849,0.295,1.242L402.634,248H343.762z"/>
		<path clip-path="url(#SVGID_4_)" fill="#13BA5E" d="M589.266,248h-52.912L418.23,366h171.036C605.895,366,619,352.403,619,335.775
			v-57.656C619,261.49,605.895,248,589.266,248"/>
		<g opacity="0.47" clip-path="url(#SVGID_4_)">
			<g>
				<defs>
					<rect id="SVGID_5_" x="313.558" y="248" width="140.814" height="117.322"/>
				</defs>
				<clipPath id="SVGID_6_">
					<use xlink:href="#SVGID_5_"  overflow="visible"/>
				</clipPath>
				<path clip-path="url(#SVGID_6_)" fill="#EAF9AF" d="M402.634,248l-89.076,89.018c0.54,13.789,10.425,25.306,23.463,28.305
					L454.372,248H402.634z"/>
			</g>
		</g>
		<g opacity="0.47" clip-path="url(#SVGID_4_)">
			<g>
				<defs>
					<rect id="SVGID_7_" x="366.492" y="248" width="169.861" height="118"/>
				</defs>
				<clipPath id="SVGID_8_">
					<use xlink:href="#SVGID_7_"  overflow="visible"/>
				</clipPath>
				<polygon clip-path="url(#SVGID_8_)" fill="#EAF9AF" points="484.615,248 366.492,366 418.23,366 536.354,248 				"/>
			</g>
		</g>
	</g>
</g>
</svg>
